<svg height="24" viewBox="0 0 24 24" width="24" xmlns="http://www.w3.org/2000/svg"><g fill="#000" fill-rule="nonzero"><path d="m21 9.5h-14c-.27614237 0-.5.22385763-.5.5 0 .2761424.22385763.5.5.5h14c.2761424 0 .5-.2238576.5-.5 0-.27614237-.2238576-.5-.5-.5z"/><path d="m21 5.5h-18c-.27614237 0-.5.22385763-.5.5s.22385763.5.5.5h18c.2761424 0 .5-.22385763.5-.5s-.2238576-.5-.5-.5z"/><path d="m21 13.5h-18c-.27614237 0-.5.2238576-.5.5s.22385763.5.5.5h18c.2761424 0 .5-.2238576.5-.5s-.2238576-.5-.5-.5z"/><path d="m21 17.5h-14c-.27614237 0-.5.2238576-.5.5s.22385763.5.5.5h14c.2761424 0 .5-.2238576.5-.5s-.2238576-.5-.5-.5z"/></g></svg>