<svg height="24" viewBox="0 0 24 24" width="24" xmlns="http://www.w3.org/2000/svg"><g fill="#000" fill-rule="nonzero"><path d="m6 17.5c.27614237 0 .5.2238576.5.5s-.22385763.5-.5.5h-2c-1.38071187 0-2.5-1.1192881-2.5-2.5v-8c0-1.38071187 1.11928813-2.5 2.5-2.5h3.19c.27614237 0 .5.22385763.5.5s-.22385763.5-.5.5h-3.19c-.82842712 0-1.5.67157288-1.5 1.5v8c0 .8284271.67157288 1.5 1.5 1.5zm10-11c-.2761424 0-.5-.22385763-.5-.5s.2238576-.5.5-.5h2c1.3807119 0 2.5 1.11928813 2.5 2.5v8c0 1.3807119-1.1192881 2.5-2.5 2.5h-3.19c-.2761424 0-.5-.2238576-.5-.5s.2238576-.5.5-.5h3.19c.8284271 0 1.5-.6715729 1.5-1.5v-8c0-.82842712-.6715729-1.5-1.5-1.5z"/><path d="m22.5 13v-2c0-.2761424-.2238576-.5-.5-.5s-.5.2238576-.5.5v2c0 .2761424.2238576.5.5.5s.5-.2238576.5-.5z"/><path d="m13.0657415 12.5-3.48176665 5.2226499c-.15317623.2297643-.09108929.540199.13867505.6933752.22976435.1531763.540199.0910893.6933752-.138675l4-6c.2215183-.3322774-.0166774-.7773501-.4160251-.7773501h-5.06574145l3.48176655-5.2226499c.1531763-.22976435.0910893-.54019902-.138675-.69337525s-.540199-.09108929-.6933752.13867505l-4.00000005 6c-.22151824.3322774.01667746.7773501.41602515.7773501z"/></g></svg>