<svg height="24" viewBox="0 0 24 24" width="24" xmlns="http://www.w3.org/2000/svg"><g fill="#000" fill-rule="nonzero"><path d="m8.35355339 10.6464466c-.19526215-.1952621-.51184463-.1952621-.70710678 0-.19526215.1952622-.19526215.5118446 0 .7071068l2.99999999 3c.1952622.1952621.5118446.1952621.7071068 0l11-11.00000001c.1952621-.19526215.1952621-.51184463 0-.70710678-.1952622-.19526215-.5118446-.19526215-.7071068 0l-10.6464466 10.64644659z"/><path d="m19.5 12v7c0 .8284271-.6715729 1.5-1.5 1.5h-14c-.82842712 0-1.5-.6715729-1.5-1.5v-14c0-.82842712.67157288-1.5 1.5-1.5h11c.2761424 0 .5-.22385763.5-.5s-.2238576-.5-.5-.5h-11c-1.38071187 0-2.5 1.11928813-2.5 2.5v14c0 1.3807119 1.11928813 2.5 2.5 2.5h14c1.3807119 0 2.5-1.1192881 2.5-2.5v-7c0-.2761424-.2238576-.5-.5-.5s-.5.2238576-.5.5z"/></g></svg>