<svg height="24" viewBox="0 0 24 24" width="24" xmlns="http://www.w3.org/2000/svg"><g fill="#000" fill-rule="nonzero"><path d="m21.5 11.07v.93c-.0024055 4.2069657-2.7718207 7.9115164-6.8064151 9.10442-4.0345945 1.1929036-8.37326095-.4100094-10.66317749-3.9394929s-1.98558705-8.14475596.74795316-11.34299445 7.24511653-4.21756951 11.08813953-2.50521853c.2522362.1123899.5478241-.00097796.660214-.2532142s-.0009779-.54782413-.2532142-.66021404c-4.2475517-1.89259845-9.23403079-.76596942-12.25531208 2.76892576-3.02128128 3.53489517-3.35764545 8.63598586-.82668506 12.53699386 2.53096038 3.9010081 7.32632854 5.6726488 11.78561724 4.3541764 4.4592886-1.3184724 7.5202211-5.4129759 7.52288-10.063096v-.9302859c0-.2761424-.2238576-.5-.5-.5s-.5.2238576-.5.5z"/><path d="m9.35355339 10.6464466c-.19526215-.1952621-.51184463-.1952621-.70710678 0-.19526215.1952622-.19526215.5118446 0 .7071068l2.99999999 3c.1952622.1952621.5118446.1952621.7071068 0l11-11.00000001c.1952621-.19526215.1952621-.51184463 0-.70710678-.1952622-.19526215-.5118446-.19526215-.7071068 0l-10.6464466 10.64644659z"/></g></svg>