<svg height="24" viewBox="0 0 24 24" width="24" xmlns="http://www.w3.org/2000/svg"><g fill="#000" fill-rule="nonzero"><path d="m12.5 17.7928932-4.64644661-4.6464466c-.19526215-.1952621-.51184463-.1952621-.70710678 0-.19526215.1952622-.19526215.5118446 0 .7071068l4.99999999 5c.1952622.1952621.5118446.1952621.7071068 0l5-5c.1952621-.1952622.1952621-.5118446 0-.7071068-.1952622-.1952621-.5118446-.1952621-.7071068 0z"/><path d="m12.5 10.7928932-4.64644661-4.64644659c-.19526215-.19526215-.51184463-.19526215-.70710678 0s-.19526215.51184463 0 .70710678l4.99999999 5.00000001c.1952622.1952621.5118446.1952621.7071068 0l5-5.00000001c.1952621-.19526215.1952621-.51184463 0-.70710678-.1952622-.19526215-.5118446-.19526215-.7071068 0z"/></g></svg>