<svg height="24" viewBox="0 0 24 24" width="24" xmlns="http://www.w3.org/2000/svg"><g fill="#000" fill-rule="nonzero"><path d="m12.5 7.20710678 4.6464466 4.64644662c.1952622.1952621.5118446.1952621.7071068 0 .1952621-.1952622.1952621-.5118446 0-.7071068l-5-4.99999999c-.1952622-.19526215-.5118446-.19526215-.7071068 0l-4.99999999 4.99999999c-.19526215.1952622-.19526215.5118446 0 .7071068.19526215.1952621.51184463.1952621.70710678 0z"/><path d="m12.5 14.2071068 4.6464466 4.6464466c.1952622.1952621.5118446.1952621.7071068 0 .1952621-.1952622.1952621-.5118446 0-.7071068l-5-5c-.1952622-.1952621-.5118446-.1952621-.7071068 0l-4.99999999 5c-.19526215.1952622-.19526215.5118446 0 .7071068.19526215.1952621.51184463.1952621.70710678 0z"/></g></svg>