<svg height="24" viewBox="0 0 24 24" width="24" xmlns="http://www.w3.org/2000/svg"><g fill="#000" fill-rule="nonzero"><path d="m8.9942083.50067793c-3.87570845 0-7.26064808 2.62172606-8.22990356 6.37427986-.96925547 3.75255381.72264076 7.68558711 4.11355724 9.56249981.24160117.1337292.54586651.0462816.67959565-.1953196s.04628157-.5458665-.19531961-.6795956c-2.99198512-1.6560995-4.48483474-5.126423-3.62960932-8.43749989.85522542-3.31107688 3.84193686-5.62436458 7.2616796-5.62436458 3.4197428 0 6.4064542 2.3132876 7.2616797 5.62436444.0570151.22073846.2561292.37495763.484112.37495763h1.26c2.3123915-.0023237 4.2499004 1.74756783 4.4822423 4.0477533.232342 2.3001855-1.3160863 4.4021919-3.5817398 4.8622464-.2706197.054951-.4454537.3188781-.3905028.5894978.054951.2706197.3188781.4454537.5894978.3905028 2.7691321-.562289 4.6616556-3.1314079 4.377682-5.9427457-.2839735-2.8113378-2.6520399-4.95009412-5.477682-4.94725435l-.8813754-.00000017c-1.0916497-3.55108601-4.3786354-5.99932215-8.1239138-5.99932215z"/><path d="m14.0657415 17.5-3.4817666 5.2226499c-.1531763.2297643-.0910893.540199.138675.6933752.2297643.1531763.540199.0910893.6933752-.138675l4-6c.2215183-.3322774-.0166774-.7773501-.4160251-.7773501h-5.06574145l3.48176655-5.2226499c.1531763-.2297643.0910893-.540199-.138675-.6933752-.2297643-.1531763-.540199-.0910893-.6933752.138675l-4.00000005 6c-.22151824.3322774.01667746.7773501.41602515.7773501z"/></g></svg>