<svg height="24" viewBox="0 0 24 24" width="24" xmlns="http://www.w3.org/2000/svg"><g fill="#000" fill-rule="nonzero"><path d="m15.5 13v8c0 .2761424.2238576.5.5.5s.5-.2238576.5-.5v-8c0-.2761424-.2238576-.5-.5-.5s-.5.2238576-.5.5z"/><path d="m7.5 13v8c0 .2761424.22385763.5.5.5s.5-.2238576.5-.5v-8c0-.2761424-.22385763-.5-.5-.5s-.5.2238576-.5.5z"/><path d="m11.5 15v8c0 .2761424.2238576.5.5.5s.5-.2238576.5-.5v-8c0-.2761424-.2238576-.5-.5-.5s-.5.2238576-.5.5z"/><path d="m9.47199004.5137334c-3.6928393-.20794557-7.09626335 1.99599858-8.41726712 5.45074205s-.25632209 7.36717465 2.63314533 9.67613145c.21572625.1723856.53035307.1372511.70273868-.0784752.1723856-.2157262.13725107-.530353-.07847518-.7027386-2.54953008-2.0373148-3.48895509-5.48946003-2.32336353-8.53776309 1.16559156-3.04830307 4.16861278-4.99295967 7.4270004-4.80947828 3.25838758.18348138 6.02410778 2.4529786 6.84011308 5.61286634.0570063.22075037.2561261.37498193.4841183.37498193h1.26c2.1282594.00250464 3.9640891 1.4964457 4.3991455 3.5803663.4350565 2.0839205-.6497065 4.1875887-2.5997338 5.0416334-.2529466.1107818-.3681939.405642-.257412.6585886.1107818.2529466.405642.3681939.6585886.257412 2.3833668-1.0438323 3.7091883-3.6149823 3.1774526-6.1619963-.5317357-2.54701404-2.7755275-4.37294201-5.3774526-4.37600365l-.8824607-.00000025c-1.0405443-3.3846622-4.0835025-5.785653-7.64613756-5.9862667z"/></g></svg>