<svg height="24" viewBox="0 0 24 24" width="24" xmlns="http://www.w3.org/2000/svg"><g fill="#000" fill-rule="nonzero"><path d="m7.00640297 19.4998074v2c0 .2761424.22385762.5.5.5.27614237 0 .5-.2238576.5-.5v-2c0-.2761424-.22385763-.5-.5-.5-.27614238 0-.5.2238576-.5.5z"/><path d="m7.00640297 13.4998074v2c0 .2761424.22385762.5.5.5.27614237 0 .5-.2238576.5-.5v-2c0-.2761424-.22385763-.5-.5-.5-.27614238 0-.5.2238576-.5.5z"/><path d="m15.006403 19.4998074v2c0 .2761424.2238576.5.5.5.2761423 0 .5-.2238576.5-.5v-2c0-.2761424-.2238577-.5-.5-.5-.2761424 0-.5.2238576-.5.5z"/><path d="m15.006403 13.4998074v2c0 .2761424.2238576.5.5.5.2761423 0 .5-.2238576.5-.5v-2c0-.2761424-.2238577-.5-.5-.5-.2761424 0-.5.2238576-.5.5z"/><path d="m11.006403 21.4998074v2c0 .2761424.2238576.5.5.5.2761423 0 .5-.2238576.5-.5v-2c0-.2761424-.2238577-.5-.5-.5-.2761424 0-.5.2238576-.5.5z"/><path d="m11.006403 15.4998074v2c0 .2761424.2238576.5.5.5.2761423 0 .5-.2238576.5-.5v-2c0-.2761424-.2238577-.5-.5-.5-.2761424 0-.5.2238576-.5.5z"/><path d="m8.97839301 1.0135408c-3.6928393-.20794556-7.09626335 1.99599858-8.41726712 5.45074206-1.32100378 3.45474347-.25632209 7.36717464 2.63314533 9.67613144.21572625.1723856.53035307.1372511.70273868-.0784751.1723856-.2157263.13725107-.5303531-.07847518-.7027387-2.54953008-2.0373148-3.4889551-5.48946003-2.32336353-8.53776309 1.16559156-3.04830306 4.16861278-4.99295966 7.4270004-4.80947828 3.25838761.18348138 6.02410781 2.4529786 6.84011311 5.61286635.0570063.22075036.2561261.37498192.4841183.37498192h1.26c2.1282594.00250464 3.964089 1.49644571 4.3991455 3.5803663.4350565 2.0839206-.6497065 4.1875887-2.5997339 5.0416334-.2529466.1107818-.3681939.405642-.257412.6585886.1107819.2529467.4056421.3681939.6585887.2574121 2.3833668-1.0438324 3.7091882-3.6149824 3.1774525-6.1619964-.5317357-2.54701404-2.7755274-4.372942-5.3774525-4.37600365l-.8824607-.00000024c-1.0405444-3.3846622-4.0835026-5.785653-7.64613759-5.98626671z"/></g></svg>