<svg height="24" viewBox="0 0 24 24" width="24" xmlns="http://www.w3.org/2000/svg"><g fill="#000" fill-rule="nonzero"><path d="m11.5 9h9c1.3807119 0 2.5 1.1192881 2.5 2.5v9c0 1.3807119-1.1192881 2.5-2.5 2.5h-9c-1.3807119 0-2.5-1.1192881-2.5-2.5v-9c0-1.3807119 1.1192881-2.5 2.5-2.5zm0 1c-.8284271 0-1.5.6715729-1.5 1.5v9c0 .8284271.6715729 1.5 1.5 1.5h9c.8284271 0 1.5-.6715729 1.5-1.5v-9c0-.8284271-.6715729-1.5-1.5-1.5z"/><path d="m5.5 15h-1c-.82842712 0-1.5-.6715729-1.5-1.5v-9c0-.82842712.67157288-1.5 1.5-1.5h9c.8284271 0 1.5.67157288 1.5 1.5v1c0 .27614237.2238576.5.5.5s.5-.22385763.5-.5v-1c0-1.38071187-1.1192881-2.5-2.5-2.5h-9c-1.38071187 0-2.5 1.11928813-2.5 2.5v9c0 1.3807119 1.11928813 2.5 2.5 2.5h1c.27614237 0 .5-.2238576.5-.5s-.22385763-.5-.5-.5z"/></g></svg>