<svg height="24" viewBox="0 0 24 24" width="24" xmlns="http://www.w3.org/2000/svg"><g fill="#000" fill-rule="nonzero"><path d="m20.5 4h-13c-.14418129 0-.2813443.06224022-.37628835.1707477l-7 8c-.16494887.188513-.16494887.4699916 0 .6585046l7 8c.09494405.1085075.23210706.1707477.37628835.1707477h13c1.3807119 0 2.5-1.1192881 2.5-2.5v-12c0-1.38071187-1.1192881-2.5-2.5-2.5zm-12.77311589 16-6.5625-7.5 6.5625-7.5h12.77311589c.8284271 0 1.5.67157288 1.5 1.5v12c0 .8284271-.6715729 1.5-1.5 1.5z"/><path d="m15.2071068 12.5 2.6464466 2.6464466c.1952621.1952622.1952621.5118446 0 .7071068-.1952622.1952621-.5118446.1952621-.7071068 0l-2.6464466-2.6464466-2.6464466 2.6464466c-.1952622.1952621-.5118446.1952621-.7071068 0-.1952621-.1952622-.1952621-.5118446 0-.7071068l2.6464466-2.6464466-2.6464466-2.64644661c-.1952621-.19526215-.1952621-.51184463 0-.70710678.1952622-.19526215.5118446-.19526215.7071068 0l2.6464466 2.64644659 2.6464466-2.64644659c.1952622-.19526215.5118446-.19526215.7071068 0 .1952621.19526215.1952621.51184463 0 .70710678z"/></g></svg>