<svg height="24" viewBox="0 0 24 24" width="24" xmlns="http://www.w3.org/2000/svg"><g fill="#000" fill-rule="nonzero"><path d="m12.5 19.3047853 3.1464466-3.1464466c.1952622-.1952622.5118446-.1952622.7071068 0 .1952621.1952621.1952621.5118446 0 .7071068l-4 4c-.1952622.1952621-.5118446.1952621-.7071068 0l-3.99999999-4c-.19526215-.1952622-.19526215-.5118447 0-.7071068.19526215-.1952622.51184463-.1952622.70710678 0l3.14644661 3.1464466v-7.7928932c0-.2761424.2238576-.5.5-.5s.5.2238576.5.5z"/><path d="m9.96361328 2.05606566c-3.49805094-.40289679-6.88235832 1.39270734-8.50999075 4.5151261-1.62763243 3.12241875-1.16156872 6.92511714 1.17193783 9.56205354.18300133.2067973.49899556.2260878.70579286.0430864.2067973-.1830013.22608775-.4989955.04308642-.7057928-2.05897637-2.3267086-2.47020905-5.68203073-1.03406279-8.4371061 1.43614626-2.75507538 4.42229983-4.33943197 7.50881537-3.9839348 3.08651558.35549718 5.63429228 2.57723808 6.40649738 5.58666586.0567374.22111591.2560313.37572822.4843104.37572822h1.26c1.9633755-.00153563 3.7008578 1.26953482 4.2937473 3.14084242s-.0956339 3.9110136-1.7013562 5.0401574c-.2258845.158842-.2802333.4707245-.1213913.6966091.1588421.2258845.4707245.2802332.6966091.1213912 1.9625495-1.3800647 2.8040781-3.8730387 2.0794353-6.1601924-.7246427-2.28715365-2.8482322-3.84068426-5.2474353-3.83880757l-.8809017-.0000001c-.9845773-3.21881462-3.7867745-5.56787182-7.15509392-5.95582647z"/></g></svg>