<svg height="24" viewBox="0 0 24 24" width="24" xmlns="http://www.w3.org/2000/svg"><g fill="#000" fill-rule="nonzero"><path d="m18 13.5v6c0 .8284271-.6715729 1.5-1.5 1.5h-11c-.82842712 0-1.5-.6715729-1.5-1.5v-11c0-.82842712.67157288-1.5 1.5-1.5h6c.2761424 0 .5-.22385763.5-.5s-.2238576-.5-.5-.5h-6c-1.38071187 0-2.5 1.11928813-2.5 2.5v11c0 1.3807119 1.11928813 2.5 2.5 2.5h11c1.3807119 0 2.5-1.1192881 2.5-2.5v-6c0-.2761424-.2238576-.5-.5-.5s-.5.2238576-.5.5z"/><path d="m20.2928932 4h-4.7928932c-.2761424 0-.5-.22385763-.5-.5s.2238576-.5.5-.5h6c.2761424 0 .5.22385763.5.5v6c0 .27614237-.2238576.5-.5.5s-.5-.22385763-.5-.5v-4.79289322l-10.1464466 10.14644662c-.1952622.1952621-.5118446.1952621-.7071068 0-.19526214-.1952622-.19526214-.5118446 0-.7071068z"/></g></svg>