<svg height="24" viewBox="0 0 24 24" width="24" xmlns="http://www.w3.org/2000/svg"><g fill="#000" fill-rule="nonzero"><path d="m13.8069703 18.8956019 9-7c.2573729-.200179.2573729-.5891733 0-.7893522l-9-7.00000004c-.328429-.25544478-.8069703-.02139798-.8069703.39467611v14.00000003c0 .4160741.4785413.6501209.8069703.3946761zm.1930297-13.37235645 7.685589 5.97768035-7.685589 5.9776803z"/><path d="m2.80697031 18.8956019 8.99999999-7c.2573729-.200179.2573729-.5891733 0-.7893522l-8.99999999-7.00000004c-.32842901-.25544478-.80697031-.02139798-.80697031.39467611v14.00000003c0 .4160741.4785413.6501209.80697031.3946761zm.19302969-1.4169958v-11.95536065l7.685589 5.97768035z"/></g></svg>