<svg height="24" viewBox="0 0 24 24" width="24" xmlns="http://www.w3.org/2000/svg"><g fill="#000" fill-rule="nonzero"><path d="m3 3.5c0-.27614237.22385763-.5.5-.5h7c.2761424 0 .5.22385763.5.5v7c0 .2761424-.2238576.5-.5.5h-7c-.27614237 0-.5-.2238576-.5-.5zm1 .5v6h6v-6z"/><path d="m14 3.5c0-.27614237.2238576-.5.5-.5h7c.2761424 0 .5.22385763.5.5v7c0 .2761424-.2238576.5-.5.5h-7c-.2761424 0-.5-.2238576-.5-.5zm1 .5v6h6v-6z"/><path d="m14 14.5c0-.2761424.2238576-.5.5-.5h7c.2761424 0 .5.2238576.5.5v7c0 .2761424-.2238576.5-.5.5h-7c-.2761424 0-.5-.2238576-.5-.5zm1 .5v6h6v-6z"/><path d="m3 14.5c0-.2761424.22385763-.5.5-.5h7c.2761424 0 .5.2238576.5.5v7c0 .2761424-.2238576.5-.5.5h-7c-.27614237 0-.5-.2238576-.5-.5zm1 .5v6h6v-6z"/></g></svg>