<svg height="24" viewBox="0 0 24 24" width="24" xmlns="http://www.w3.org/2000/svg"><g fill="#000" fill-rule="evenodd"><path d="m10.0616672 9.17072103c.4045308-1.14996297 1.5794864-1.84049473 2.7809803-1.63440658 1.2014936.2060881 2.0791697 1.24870066 2.0773564 2.46774105-.0000005.6733811-.4646569 1.2929223-1.2773521 1.8347185-.3024909.2016604-.6296372.3761382-.9569703.5216194-.1952242.0867662-.344486.1436278-.4237952.1700642-.2619717.0873238-.4035518.3704837-.316228.6324554s.3704837.4035518.6324554.316228c.108191-.0360636.2870546-.1042021.5137059-.2049359.3757927-.1670188.7517721-.3675409 1.105532-.6033805 1.0623069-.7082039 1.7226557-1.5886627 1.7226557-2.6660253.0025342-1.70591122-1.2262116-3.16556775-2.9083022-3.45409101-1.6820914-.28852341-3.3270293.67822105-3.89337232 2.28816921-.09163606.26049461.04525084.54595293.30574545.63758899.26049462.09163606.54595293-.04525085.63758897-.30574546z" fill-rule="nonzero"/><circle cx="12.5" cy="17.5" r="1"/><path d="m12.5 22.5c5.7989899 0 10.5-4.7010101 10.5-10.5 0-5.79898987-4.7010101-10.5-10.5-10.5-5.79898987 0-10.5 4.70101013-10.5 10.5 0 5.7989899 4.70101013 10.5 10.5 10.5zm0-1c-5.24670512 0-9.5-4.2532949-9.5-9.5 0-5.24670512 4.25329488-9.5 9.5-9.5 5.2467051 0 9.5 4.25329488 9.5 9.5 0 5.2467051-4.2532949 9.5-9.5 9.5z" fill-rule="nonzero"/></g></svg>