<svg height="24" viewBox="0 0 24 24" width="24" xmlns="http://www.w3.org/2000/svg"><g fill="#000" fill-rule="nonzero"><path d="m12.5 23c5.7989899 0 10.5-4.7010101 10.5-10.5 0-5.79898987-4.7010101-10.5-10.5-10.5-5.79898987 0-10.5 4.70101013-10.5 10.5 0 5.7989899 4.70101013 10.5 10.5 10.5zm0-1c-5.24670512 0-9.5-4.2532949-9.5-9.5 0-5.24670512 4.25329488-9.5 9.5-9.5 5.2467051 0 9.5 4.25329488 9.5 9.5 0 5.2467051-4.2532949 9.5-9.5 9.5z"/><path d="m13 16.4c0 .3313708-.2238576.6-.5.6s-.5-.2686292-.5-.6v-4.8c0-.3313708.2238576-.6.5-.6s.5.2686292.5.6zm-.5-7.4c-.2761424 0-.5-.22385763-.5-.5s.2238576-.5.5-.5.5.22385763.5.5-.2238576.5-.5.5z"/></g></svg>