<svg height="24" viewBox="0 0 24 24" width="24" xmlns="http://www.w3.org/2000/svg"><g fill="#000" fill-rule="nonzero"><path d="m19.5 3.00013552h-9c-.2761424 0-.5.22385763-.5.5 0 .27614238.2238576.5.5.5h9c.2761424 0 .5-.22385762.5-.5 0-.27614237-.2238576-.5-.5-.5z"/><path d="m14.5 19.0001355h-9c-.27614237 0-.5.2238576-.5.5s.22385763.5.5.5h9c.2761424 0 .5-.2238576.5-.5s-.2238576-.5-.5-.5z"/><path d="m15.0318354 3.3245738-5.99999999 16c-.09696006.2585602.03404271.5467662.29260287.6437263s.54676625-.0340427.64372631-.2926029l6.00000001-15.99999996c.09696-.25856016-.0340427-.54676625-.2926029-.64372631-.2585601-.09696006-.5467662.03404271-.6437263.29260287z"/></g></svg>