<svg height="24" viewBox="0 0 24 24" width="24" xmlns="http://www.w3.org/2000/svg"><g fill="#000" fill-rule="nonzero"><path d="m11.2765027 2.0527864-9.99999997 5c-.36852427.18426214-.36852427.71016506 0 .8944272l9.99999997 5c.1407638.0703819.3064499.0703819.4472136 0l10-5c.3685243-.18426214.3685243-.71016506 0-.8944272l-10-5c-.1407637-.07038187-.3064498-.07038187-.4472136 0zm.2236068 1.00623059 8.881966 4.44098301-8.881966 4.440983-8.88196598-4.440983z"/><path d="m1.72371633 17.0527864c-.24698925-.1234946-.54732577-.0233824-.6708204.2236068-.12349462.2469893-.02338245.5473258.2236068.6708204l9.99999997 5c.1407638.0703819.3064499.0703819.4472136 0l10-5c.2469893-.1234946.3471014-.4238311.2236068-.6708204-.1234946-.2469892-.4238311-.3471014-.6708204-.2236068l-9.7763932 4.8881966z"/><path d="m1.72371633 12.0527864c-.24698925-.1234946-.54732577-.0233824-.6708204.2236068-.12349462.2469893-.02338245.5473258.2236068.6708204l9.99999997 5c.1407638.0703819.3064499.0703819.4472136 0l10-5c.2469893-.1234946.3471014-.4238311.2236068-.6708204-.1234946-.2469892-.4238311-.3471014-.6708204-.2236068l-9.7763932 4.8881966z"/></g></svg>