<svg height="24" viewBox="0 0 24 24" width="24" xmlns="http://www.w3.org/2000/svg"><g fill="#000" fill-rule="nonzero"><path d="m12.5 23c5.7989899 0 10.5-4.7010101 10.5-10.5 0-5.79898987-4.7010101-10.5-10.5-10.5-5.79898987 0-10.5 4.70101013-10.5 10.5 0 5.7989899 4.70101013 10.5 10.5 10.5zm0-1c-5.24670512 0-9.5-4.2532949-9.5-9.5 0-5.24670512 4.25329488-9.5 9.5-9.5 5.2467051 0 9.5 4.25329488 9.5 9.5 0 5.2467051-4.2532949 9.5-9.5 9.5z"/><path d="m12.5 17c2.4852814 0 4.5-2.0147186 4.5-4.5s-2.0147186-4.5-4.5-4.5-4.5 2.0147186-4.5 4.5 2.0147186 4.5 4.5 4.5zm0-1c-1.9329966 0-3.5-1.5670034-3.5-3.5s1.5670034-3.5 3.5-3.5 3.5 1.5670034 3.5 3.5-1.5670034 3.5-3.5 3.5z"/><path d="m5.07644661 5.78355339 4.24 4.24000001c.19526215.1952621.51184463.1952621.70710679 0 .1952621-.19526216.1952621-.51184464 0-.70710679l-4.24000001-4.24c-.19526215-.19526215-.51184463-.19526215-.70710678 0s-.19526215.51184463 0 .70710678z"/><path d="m14.9764466 15.6835534 4.24 4.24c.1952622.1952621.5118446.1952621.7071068 0 .1952621-.1952622.1952621-.5118446 0-.7071068l-4.24-4.24c-.1952622-.1952621-.5118446-.1952621-.7071068 0-.1952621.1952622-.1952621.5118446 0 .7071068z"/><path d="m15.6835534 10.0235534 4.24-4.24000001c.1952621-.19526215.1952621-.51184463 0-.70710678-.1952622-.19526215-.5118446-.19526215-.7071068 0l-4.24 4.24c-.1952621.19526215-.1952621.51184463 0 .70710679.1952622.1952621.5118446.1952621.7071068 0z"/><path d="m15.6835534 10.0235534 3.53-3.53000001c.1952621-.19526215.1952621-.51184463 0-.70710678-.1952622-.19526215-.5118446-.19526215-.7071068 0l-3.53 3.53c-.1952621.19526215-.1952621.51184463 0 .70710679.1952622.1952621.5118446.1952621.7071068 0z"/><path d="m5.78355339 19.9235534 4.24000001-4.24c.1952621-.1952622.1952621-.5118446 0-.7071068-.19526216-.1952621-.51184464-.1952621-.70710679 0l-4.24 4.24c-.19526215.1952622-.19526215.5118446 0 .7071068.19526215.1952621.51184463.1952621.70710678 0z"/></g></svg>