<svg height="24" viewBox="0 0 24 24" width="24" xmlns="http://www.w3.org/2000/svg"><g fill="#000" fill-rule="nonzero"><path d="m10.0423906 13.7330495c.9558511 1.2778622 2.4195901 2.0775705 4.0113149 2.1915667s3.1544875-.46896 4.2826851-1.5975667l2.9999359-2.9999359c2.0904379-2.16428136 2.0606288-5.59466376-.0609071-7.71619965s-5.5519183-2.15134499-7.7100021-.06699784l-1.7251653 1.71506146c-.1958306.19469204-.1967535.51127318-.0020615.70710377s.5112732.19675357.7071038.00206153l1.72-1.71c1.7605397-1.70031349 4.5672162-1.67592423 6.3030183.05987786s1.7601914 4.5424786.0548165 6.30818357l-2.9939093 2.9938025c-.9231349.9234696-2.2017589 1.4004338-3.5040792 1.3071641-1.3023204-.0932696-2.499925-.7475763-3.2819849-1.7931-.1654034-.2211251-.4787467-.2662966-.6998718-.1008932-.2211252.1654034-.26629664.4787466-.1008933.6998718z"/><path d="m14.8431557 11.1340709c-.9558511-1.27786219-2.4195901-2.07757044-4.0113149-2.19156665s-3.1544875.46895994-4.28268512 1.59756665l-2.99993592 2.9999359c-2.09043786 2.1642814-2.06062877 5.5946638.06090713 7.7161997 2.12153589 2.1215359 5.55191828 2.151345 7.71000221.0669978l1.7161974-1.7160907c.1952622-.1952621.1952622-.5118446 0-.7071068-.1952621-.1952621-.5118446-.1952621-.7071067 0l-1.71 1.71c-1.75950753 1.6992843-4.56618404 1.674895-6.30198613-.0609071-1.7358021-1.7358021-1.76019136-4.5424786-.05481641-6.3081836l2.99390928-2.9938025c.92313487-.9234696 2.2017589-1.40043372 3.50407926-1.3071641 1.3023203.0932696 2.4999249.7475764 3.2819848 1.7931.1654034.2211252.4787467.2662966.6998718.1008932.2211252-.1654033.2662966-.4787466.1008933-.6998718z"/></g></svg>