<svg height="24" viewBox="0 0 24 24" width="24" xmlns="http://www.w3.org/2000/svg"><g fill="#000" fill-rule="nonzero"><path d="m12 2.5v4c0 .27614237.2238576.5.5.5s.5-.22385763.5-.5v-4c0-.27614237-.2238576-.5-.5-.5s-.5.22385763-.5.5z"/><path d="m12 18.5v4c0 .2761424.2238576.5.5.5s.5-.2238576.5-.5v-4c0-.2761424-.2238576-.5-.5-.5s-.5.2238576-.5.5z"/><path d="m5.07644661 5.78355339 2.83 2.83c.19526215.19526215.51184463.19526215.70710678 0s.19526215-.51184463 0-.70710678l-2.83-2.83c-.19526215-.19526215-.51184463-.19526215-.70710678 0s-.19526215.51184463 0 .70710678z"/><path d="m16.3864466 17.0935534 2.83 2.83c.1952622.1952621.5118446.1952621.7071068 0 .1952621-.1952622.1952621-.5118446 0-.7071068l-2.83-2.83c-.1952622-.1952621-.5118446-.1952621-.7071068 0-.1952621.1952622-.1952621.5118446 0 .7071068z"/><path d="m2.5 13h4c.27614237 0 .5-.2238576.5-.5s-.22385763-.5-.5-.5h-4c-.27614237 0-.5.2238576-.5.5s.22385763.5.5.5z"/><path d="m18.5 13h4c.2761424 0 .5-.2238576.5-.5s-.2238576-.5-.5-.5h-4c-.2761424 0-.5.2238576-.5.5s.2238576.5.5.5z"/><path d="m5.78355339 19.9235534 2.83-2.83c.19526215-.1952622.19526215-.5118446 0-.7071068-.19526215-.1952621-.51184463-.1952621-.70710678 0l-2.83 2.83c-.19526215.1952622-.19526215.5118446 0 .7071068.19526215.1952621.51184463.1952621.70710678 0z"/><path d="m17.0935534 8.61355339 2.83-2.83c.1952621-.19526215.1952621-.51184463 0-.70710678-.1952622-.19526215-.5118446-.19526215-.7071068 0l-2.83 2.83c-.1952621.19526215-.1952621.51184463 0 .70710678.1952622.19526215.5118446.19526215.7071068 0z"/></g></svg>