<svg height="24" viewBox="0 0 24 24" width="24" xmlns="http://www.w3.org/2000/svg"><g fill="#000" fill-rule="nonzero"><path d="m14.5 23h5c1.3807119 0 2.5-1.1192881 2.5-2.5v-16c0-1.38071187-1.1192881-2.5-2.5-2.5h-5c-.2761424 0-.5.22385763-.5.5s.2238576.5.5.5h5c.8284271 0 1.5.67157288 1.5 1.5v16c0 .8284271-.6715729 1.5-1.5 1.5h-5c-.2761424 0-.5.2238576-.5.5s.2238576.5.5.5z"/><path d="m14.2928932 13h-10.7928932c-.27614237 0-.5-.2238576-.5-.5s.22385763-.5.5-.5h10.7928932l-3.1464466-3.14644661c-.1952621-.19526215-.1952621-.51184463 0-.70710678.1952622-.19526215.5118446-.19526215.7071068 0l4 3.99999999c.1952621.1952622.1952621.5118446 0 .7071068l-4 4c-.1952622.1952621-.5118446.1952621-.7071068 0-.1952621-.1952622-.1952621-.5118446 0-.7071068z"/></g></svg>