<svg height="24" viewBox="0 0 24 24" width="24" xmlns="http://www.w3.org/2000/svg"><g fill="#000" fill-rule="nonzero"><path d="m7.51573466 18.0676231 7.76065854 3.8803293c.1495273.0747637.3265263.0698508.4716763-.013092l7-4c.1557875-.0890214.2519305-.2546932.2519305-.4341216v-15.99999998c0-.38391133-.4147411-.62459493-.7480695-.43412157l-6.7676652 3.86723725-7.7606585-3.88032927c-.14952729-.07476365-.32652634-.06985079-.47167627.01309202l-7 4c-.1557875.08902143-.25193053.25469315-.25193053.43412157v15.99999998c0 .3839114.41474109.624595.74806947.4341216zm-6.51573466-12.27672301 6.51573466-3.72327694 7.76065854 3.88032927c.1495273.07476365.3265263.06985079.4716763-.01309202l6.2519305-3.57253174v14.84824894l-6.5157347 3.7232769-7.7606585-3.8803293c-.14952729-.0747636-.32652634-.0698508-.47167627.0130921l-6.25193053 3.5725317z"/><path d="m7 1.50073882v15.99999998c0 .2761424.22385763.5.5.5s.5-.2238576.5-.5v-15.99999998c0-.27614237-.22385763-.5-.5-.5s-.5.22385763-.5.5z"/><path d="m15 5.50073882v15.99999998c0 .2761424.2238576.5.5.5s.5-.2238576.5-.5v-15.99999998c0-.27614237-.2238576-.5-.5-.5s-.5.22385763-.5.5z"/></g></svg>