<svg height="24" viewBox="0 0 24 24" width="24" xmlns="http://www.w3.org/2000/svg"><g fill="#000" fill-rule="nonzero"><path d="m20.2504362 16.1952664c-1.6626433 3.9319388-5.7438675 6.2719412-9.977116 5.7204589-4.23324849-.5514823-7.57874835-3.8589939-8.17853626-8.0856687-.59978791-4.22667485 1.69345639-8.33435459 5.60615229-10.04179024.25309352-.11044582.36873234-.40515268.25828652-.65824621-.11044582-.25309352-.40515269-.36873233-.65824622-.25828651-4.32455862 1.88716571-6.85919705 6.4272328-6.19627358 11.09882076.66292348 4.671588 4.36058122 8.3272587 9.03943485 8.9367918 4.6788536.609533 9.1896804-1.9767854 11.0273387-6.3226126.1075485-.2543382-.0114482-.5477053-.2657865-.6552538-.2543382-.1075484-.5477054.0114483-.6552538.2657866z"/><path d="m22.0009564 12.5c0-2.78477314-1.1062468-5.45548923-3.0753788-7.4246212-1.969132-1.96913198-4.6398481-3.0753788-7.4246212-3.0753788-.2761424 0-.5.22385763-.5.5v10c0 .2761424.2238576.5.5.5h10c.2761424 0 .5-.2238576.5-.5zm-10-.5v-8.98684557c2.3374137.1231007 4.5541278 1.10594452 6.2175144 2.76933115s2.6462304 3.8801007 2.7693312 6.21751442z"/></g></svg>