<svg height="24" viewBox="0 0 24 24" width="24" xmlns="http://www.w3.org/2000/svg"><g fill="#000" fill-rule="nonzero"><path d="m17.5113889 6.49349566c3.318659 3.31974288 3.3180733 8.70114064-.0013084 12.02016094-3.3193816 3.3190204-8.70077939 3.3190204-12.02016102 0-3.31938163-3.3190203-3.31996739-8.70041806-.00130837-12.02016094.19523026-.19529402.19517858-.51187651-.00011545-.70710677-.19529402-.19523026-.51187651-.19517857-.70710677.00011545-3.70908949 3.71030087-3.70843483 9.72480426.00146229 13.43429756s9.72440052 3.7094933 13.43429762 0 3.7105518-9.72399669.0014623-13.43429756c-.1952303-.19529402-.5118127-.19534571-.7071068-.00011545-.195294.19523026-.1953457.51181275-.0001154.70710677z"/><path d="m11.005 1.5v10c0 .2761424.2238576.5.5.5s.5-.2238576.5-.5v-10c0-.27614237-.2238576-.5-.5-.5s-.5.22385763-.5.5z"/></g></svg>