<svg height="24" viewBox="0 0 24 24" width="24" xmlns="http://www.w3.org/2000/svg"><g fill="#000" fill-rule="nonzero"><path d="m8 23.5c1.38071187 0 2.5-1.1192881 2.5-2.5s-1.11928813-2.5-2.5-2.5-2.5 1.1192881-2.5 2.5 1.11928813 2.5 2.5 2.5zm0-1c-.82842712 0-1.5-.6715729-1.5-1.5s.67157288-1.5 1.5-1.5 1.5.6715729 1.5 1.5-.67157288 1.5-1.5 1.5z"/><path d="m20 23.5c1.3807119 0 2.5-1.1192881 2.5-2.5s-1.1192881-2.5-2.5-2.5-2.5 1.1192881-2.5 2.5 1.1192881 2.5 2.5 2.5zm0-1c-.8284271 0-1.5-.6715729-1.5-1.5s.6715729-1.5 1.5-1.5 1.5.6715729 1.5 1.5-.6715729 1.5-1.5 1.5z"/><path d="m6.2304446 6.5h16.1595109l-1.5602234 7.7918296c-.1417047.7134358-.7736899 1.222184-1.500152 1.2082622l-10.5795801-.0000918c-.76212957.0064461-1.4057388-.5534939-1.50424065-1.304982zm-.13194442-1-.3727965-2.82540535c-.16291881-1.24259924-1.22130465-2.17269588-2.47494661-2.17459465h-2.25075707c-.27614237 0-.5.22385763-.5.5s.22385763.5.5.5h2.25c.75142811.00113834 1.38645961.55919633 1.48424293 1.30499943l1.52005339 11.52040587c.16411407 1.2520568 1.23679612 2.1852902 2.49994433 2.1745767l10.56575935.000018c1.2011899.0231112 2.2544987-.8248024 2.4904199-2.0125918l1.679848-8.38923776c.0619592-.30942762-.1746979-.59817044-.4902679-.59817044z"/></g></svg>