<svg height="24" viewBox="0 0 24 24" width="24" xmlns="http://www.w3.org/2000/svg"><g fill="#000" fill-rule="nonzero"><path d="m3.5 14.5h-2.5c-.27614237 0-.5-.2238576-.5-.5s.22385763-.5.5-.5h6c.27614237 0 .5.2238576.5.5s-.22385763.5-.5.5h-2.5v6.5c0 .2761424-.22385763.5-.5.5s-.5-.2238576-.5-.5z"/><path d="m4.5 10v-7c0-.27614237-.22385763-.5-.5-.5s-.5.22385763-.5.5v7c0 .2761424.22385763.5.5.5s.5-.2238576.5-.5z"/><path d="m12.5 21v-9c0-.2761424-.2238576-.5-.5-.5s-.5.2238576-.5.5v9c0 .2761424.2238576.5.5.5s.5-.2238576.5-.5z"/><path d="m11.5 7.5v-4.5c0-.27614237.2238576-.5.5-.5s.5.22385763.5.5v4.5h2.5c.2761424 0 .5.22385763.5.5s-.2238576.5-.5.5h-6c-.27614237 0-.5-.22385763-.5-.5s.22385763-.5.5-.5z"/><path d="m19.5 16.5h-2.5c-.2761424 0-.5-.2238576-.5-.5s.2238576-.5.5-.5h6c.2761424 0 .5.2238576.5.5s-.2238576.5-.5.5h-2.5v4.5c0 .2761424-.2238576.5-.5.5s-.5-.2238576-.5-.5z"/><path d="m20.5 12v-9c0-.27614237-.2238576-.5-.5-.5s-.5.22385763-.5.5v9c0 .2761424.2238576.5.5.5s.5-.2238576.5-.5z"/></g></svg>