<svg height="24" viewBox="0 0 24 24" width="24" xmlns="http://www.w3.org/2000/svg"><g fill="#000" fill-rule="nonzero"><path d="m12 17.5c3.0375661 0 5.5-2.4624339 5.5-5.5 0-3.03756612-2.4624339-5.5-5.5-5.5-3.03756612 0-5.5 2.46243388-5.5 5.5 0 3.0375661 2.46243388 5.5 5.5 5.5zm0-1c-2.48528137 0-4.5-2.0147186-4.5-4.5 0-2.48528137 2.01471863-4.5 4.5-4.5 2.4852814 0 4.5 2.01471863 4.5 4.5 0 2.4852814-2.0147186 4.5-4.5 4.5z"/><path d="m11.5 1v2c0 .27614237.2238576.5.5.5s.5-.22385763.5-.5v-2c0-.27614237-.2238576-.5-.5-.5s-.5.22385763-.5.5z"/><path d="m11.5 21v2c0 .2761424.2238576.5.5.5s.5-.2238576.5-.5v-2c0-.2761424-.2238576-.5-.5-.5s-.5.2238576-.5.5z"/><path d="m3.86644661 4.57355339 1.42 1.42c.19526215.19526215.51184463.19526215.70710678 0s.19526215-.51184463 0-.70710678l-1.42-1.42c-.19526215-.19526215-.51184463-.19526215-.70710678 0s-.19526215.51184463 0 .70710678z"/><path d="m18.0064466 18.7135534 1.42 1.42c.1952622.1952621.5118446.1952621.7071068 0 .1952621-.1952622.1952621-.5118446 0-.7071068l-1.42-1.42c-.1952622-.1952621-.5118446-.1952621-.7071068 0-.1952621.1952622-.1952621.5118446 0 .7071068z"/><path d="m1 12.5h2c.27614237 0 .5-.2238576.5-.5s-.22385763-.5-.5-.5h-2c-.27614237 0-.5.2238576-.5.5s.22385763.5.5.5z"/><path d="m21 12.5h2c.2761424 0 .5-.2238576.5-.5s-.2238576-.5-.5-.5h-2c-.2761424 0-.5.2238576-.5.5s.2238576.5.5.5z"/><path d="m4.57355339 20.1335534 1.42-1.42c.19526215-.1952622.19526215-.5118446 0-.7071068-.19526215-.1952621-.51184463-.1952621-.70710678 0l-1.42 1.42c-.19526215.1952622-.19526215.5118446 0 .7071068.19526215.1952621.51184463.1952621.70710678 0z"/><path d="m18.7135534 5.99355339 1.42-1.42c.1952621-.19526215.1952621-.51184463 0-.70710678-.1952622-.19526215-.5118446-.19526215-.7071068 0l-1.42 1.42c-.1952621.19526215-.1952621.51184463 0 .70710678.1952622.19526215.5118446.19526215.7071068 0z"/></g></svg>