<svg height="24" viewBox="0 0 24 24" width="24" xmlns="http://www.w3.org/2000/svg"><g fill="#000" fill-rule="nonzero"><path d="m17.5 18c0-3.0375661-2.4624339-5.5-5.5-5.5-3.03756612 0-5.5 2.4624339-5.5 5.5 0 .2761424.22385763.5.5.5s.5-.2238576.5-.5c0-2.4852814 2.01471863-4.5 4.5-4.5 2.4852814 0 4.5 2.0147186 4.5 4.5 0 .2761424.2238576.5.5.5s.5-.2238576.5-.5z"/><path d="m12.5 3.20710678v5.79289322c0 .27614237-.2238576.5-.5.5s-.5-.22385763-.5-.5v-5.79289322l-3.14644661 3.14644661c-.19526215.19526215-.51184463.19526215-.70710678 0s-.19526215-.51184463 0-.70710678l3.99999999-4c.1952622-.19526215.5118446-.19526215.7071068 0l4 4c.1952621.19526215.1952621.51184463 0 .70710678-.1952622.19526215-.5118446.19526215-.7071068 0z"/><path d="m3.86644661 10.5735534 1.42 1.42c.19526215.1952621.51184463.1952621.70710678 0 .19526215-.1952622.19526215-.5118446 0-.7071068l-1.42-1.41999999c-.19526215-.19526215-.51184463-.19526215-.70710678 0-.19526215.19526219-.19526215.51184459 0 .70710679z"/><path d="m1 18.5h2c.27614237 0 .5-.2238576.5-.5s-.22385763-.5-.5-.5h-2c-.27614237 0-.5.2238576-.5.5s.22385763.5.5.5z"/><path d="m21 18.5h2c.2761424 0 .5-.2238576.5-.5s-.2238576-.5-.5-.5h-2c-.2761424 0-.5.2238576-.5.5s.2238576.5.5.5z"/><path d="m18.7135534 11.9935534 1.42-1.42c.1952621-.1952622.1952621-.5118446 0-.70710679-.1952622-.19526215-.5118446-.19526215-.7071068 0l-1.42 1.41999999c-.1952621.1952622-.1952621.5118446 0 .7071068.1952622.1952621.5118446.1952621.7071068 0z"/><path d="m23 21.5h-22c-.27614237 0-.5.2238576-.5.5s.22385763.5.5.5h22c.2761424 0 .5-.2238576.5-.5s-.2238576-.5-.5-.5z"/></g></svg>