<svg height="24" viewBox="0 0 24 24" width="24" xmlns="http://www.w3.org/2000/svg"><g fill="#000" fill-rule="nonzero"><path d="m6 3.5v7c0 3.5898509 2.91014913 6.5 6.5 6.5 3.5898509 0 6.5-2.9101491 6.5-6.5v-7c0-.27614237-.2238576-.5-.5-.5s-.5.22385763-.5.5v7c0 3.0375661-2.4624339 5.5-5.5 5.5-3.03756612 0-5.5-2.4624339-5.5-5.5v-7c0-.27614237-.22385763-.5-.5-.5s-.5.22385763-.5.5z"/><path d="m4.5 22h16c.2761424 0 .5-.2238576.5-.5s-.2238576-.5-.5-.5h-16c-.27614237 0-.5.2238576-.5.5s.22385763.5.5.5z"/></g></svg>