<svg height="24" viewBox="0 0 24 24" width="24" xmlns="http://www.w3.org/2000/svg"><g fill="#000" fill-rule="nonzero"><path d="m12.5 13.7048858v7.7928932c0 .2761424-.2238576.5-.5.5s-.5-.2238576-.5-.5v-7.7928932l-3.14644661 3.1464466c-.19526215.1952621-.51184463.1952621-.70710678 0s-.19526215-.5118446 0-.7071068l3.99999999-4c.1952622-.1952621.5118446-.1952621.7071068 0l4 4c.1952621.1952622.1952621.5118447 0 .7071068-.1952622.1952621-.5118446.1952621-.7071068 0z"/><path d="m9.95892445 3.05510766c-3.49586699-.39915445-6.87629216 1.39685019-8.50225676 4.51721065-1.6259646 3.12036049-1.1613131 6.91996649 1.16866554 9.55655709.18285947.2069227.4988404.2264299.70576314.0435704.20692275-.1828595.22642988-.4988404.0435704-.7057632-2.0558635-2.3264034-2.46585012-5.678997-1.03117547-8.4322562 1.43467464-2.75325923 4.41740274-4.33796921 7.50199126-3.98577411 3.08458854.3521951 5.63332284 2.56848169 6.41043424 5.57428035.057055.22068393.2561431.37484637.4840832.37484637h1.26c2.0563307.00135777 3.8503568 1.39690759 4.3576563 3.39002149.5072995 1.9931138-.4012374 4.0765364-2.2069864 5.0609784-.2424531.1321784-.3318484.4358772-.19967.6783302.1321784.2424531.4358772.3318484.6783302.19967 2.2070266-1.2032068 3.3174606-3.7496122 2.6974279-6.1856403s-2.8127313-4.14170006-5.3264279-4.14335968l-.8823223-.00000007c-.9894997-3.21492618-3.7927217-5.55830373-7.15908335-5.94267139z"/></g></svg>