<svg height="24" viewBox="0 0 24 24" width="24" xmlns="http://www.w3.org/2000/svg"><g fill="#000" fill-rule="nonzero"><path d="m3 17.5v3c0 1.3807119 1.11928813 2.5 2.5 2.5h14c1.3807119 0 2.5-1.1192881 2.5-2.5v-3c0-.2761424-.2238576-.5-.5-.5s-.5.2238576-.5.5v3c0 .8284271-.6715729 1.5-1.5 1.5h-14c-.82842712 0-1.5-.6715729-1.5-1.5v-3c0-.2761424-.22385763-.5-.5-.5s-.5.2238576-.5.5z"/><path d="m13 3.70710678v12.79289322c0 .2761424-.2238576.5-.5.5s-.5-.2238576-.5-.5v-12.79289322l-3.14644661 3.14644661c-.19526215.19526215-.51184463.19526215-.70710678 0s-.19526215-.51184463 0-.70710678l3.99999999-4c.1952622-.19526215.5118446-.19526215.7071068 0l4 4c.1952621.19526215.1952621.51184463 0 .70710678-.1952622.19526215-.5118446.19526215-.7071068 0z"/></g></svg>