<svg height="24" viewBox="0 0 24 24" width="24" xmlns="http://www.w3.org/2000/svg"><g fill="#000" fill-rule="nonzero"><path d="m18 21.5v-2c0-2.4852814-2.0147186-4.5-4.5-4.5h-8c-2.48528137 0-4.5 2.0147186-4.5 4.5v2c0 .2761424.22385763.5.5.5s.5-.2238576.5-.5v-2c0-1.9329966 1.56700338-3.5 3.5-3.5h8c1.9329966 0 3.5 1.5670034 3.5 3.5v2c0 .2761424.2238576.5.5.5s.5-.2238576.5-.5z"/><path d="m9.5 12c2.4852814 0 4.5-2.01471863 4.5-4.5s-2.0147186-4.5-4.5-4.5c-2.48528137 0-4.5 2.01471863-4.5 4.5s2.01471863 4.5 4.5 4.5zm0-1c-1.93299662 0-3.5-1.56700338-3.5-3.5s1.56700338-3.5 3.5-3.5c1.9329966 0 3.5 1.56700338 3.5 3.5s-1.5670034 3.5-3.5 3.5z"/><path d="m24 21.5v-2c-.0015298-2.0511155-1.3893765-3.8414377-3.3750001-4.354123-.2673738-.0690355-.5400873.0917494-.6091229.3591231-.0690355.2673738.0917494.5400873.3591231.6091229 1.544374.3987551 2.6238103 1.791228 2.625 3.38625l-.0000001 1.999627c0 .2761424.2238576.5.5.5s.5-.2238576.5-.5z"/><path d="m16.3759804 4.114375c1.5486755.39652356 2.6318629 1.79199225 2.6318629 3.390625s-1.0831874 2.9941014-2.6318629 3.390625c-.2675129.0684941-.4288495.3408817-.3603554.6083946s.3408817.4288495.6083946.3603554c1.9911542-.509816 3.3838237-2.30399004 3.3838237-4.359375s-1.3926695-3.84955899-3.3838237-4.359375c-.2675129-.06849413-.5399005.09284248-.6083946.36035541-.0684941.26751292.0928425.53990046.3603554.60839459z"/></g></svg>