<svg height="24" viewBox="0 0 24 24" width="24" xmlns="http://www.w3.org/2000/svg"><g fill="#000" fill-rule="nonzero"><path d="m17 21.5v-2c0-2.4852814-2.0147186-4.5-4.5-4.5h-7c-2.48528137 0-4.5 2.0147186-4.5 4.5v2c0 .2761424.22385763.5.5.5s.5-.2238576.5-.5v-2c0-1.9329966 1.56700338-3.5 3.5-3.5h7c1.9329966 0 3.5 1.5670034 3.5 3.5v2c0 .2761424.2238576.5.5.5s.5-.2238576.5-.5z"/><path d="m9 12c2.4852814 0 4.5-2.01471863 4.5-4.5s-2.0147186-4.5-4.5-4.5c-2.48528137 0-4.5 2.01471863-4.5 4.5s2.01471863 4.5 4.5 4.5zm0-1c-1.93299662 0-3.5-1.56700338-3.5-3.5s1.56700338-3.5 3.5-3.5c1.9329966 0 3.5 1.56700338 3.5 3.5s-1.5670034 3.5-3.5 3.5z"/><path d="m17.8535534 11.1464466c-.1952622-.1952621-.5118446-.1952621-.7071068 0-.1952621.1952622-.1952621.5118446 0 .7071068l2 2c.1952622.1952621.5118446.1952621.7071068 0l4-4.00000001c.1952621-.19526215.1952621-.51184463 0-.70710678-.1952622-.19526215-.5118446-.19526215-.7071068 0l-3.6464466 3.64644659z"/></g></svg>