<svg height="24" viewBox="0 0 24 24" width="24" xmlns="http://www.w3.org/2000/svg"><g fill="#000" fill-rule="nonzero"><path d="m21 21.5v-2c0-2.4852814-2.0147186-4.5-4.5-4.5h-8c-2.48528137 0-4.5 2.0147186-4.5 4.5v2c0 .2761424.22385763.5.5.5s.5-.2238576.5-.5v-2c0-1.9329966 1.56700338-3.5 3.5-3.5h8c1.9329966 0 3.5 1.5670034 3.5 3.5v2c0 .2761424.2238576.5.5.5s.5-.2238576.5-.5z"/><path d="m12.5 12c2.4852814 0 4.5-2.01471863 4.5-4.5s-2.0147186-4.5-4.5-4.5-4.5 2.01471863-4.5 4.5 2.0147186 4.5 4.5 4.5zm0-1c-1.9329966 0-3.5-1.56700338-3.5-3.5s1.5670034-3.5 3.5-3.5 3.5 1.56700338 3.5 3.5-1.5670034 3.5-3.5 3.5z"/></g></svg>