<svg height="24" viewBox="0 0 24 24" width="24" xmlns="http://www.w3.org/2000/svg"><g fill="#000" fill-rule="nonzero"><path d="m5.82460947 8.5h-3.82460947c-.27614237 0-.5.22385763-.5.5v6c0 .2761424.22385763.5.5.5h3.82460947l4.86304303 3.8904344c.3273816.2619053.8123475.0288187.8123475-.3904344v-14c0-.4192531-.4849659-.65233974-.8123475-.3904344zm4.67539053-2.45968758v11.91937518l-4.18765248-3.350122c-.08865652-.0709252-.19881177-.1095656-.31234752-.1095656h-3.5v-5h3.5c.11353575 0 .223691-.03864038.31234752-.1095656z"/><path d="m18.7163932 5.2835c-.1952326-.19529163-.1951848-.51187411.0001068-.70710677s.5118741-.19518486.7071068.00010677c4.0990103 4.10024844 4.0990103 10.7467516 0 14.847-.1952327.1952916-.5118152.1953394-.7071068.0001068-.1952916-.1952327-.1953394-.5118152-.0001068-.7071068 3.7086284-3.7097486 3.7086284-9.72325141 0-13.433zm-3.53 3.53c-.1952326-.19529163-.1951848-.51187411.0001068-.70710677s.5118741-.19518486.7071068.00010677c2.1471006 2.1477492 2.1471006 5.6292508 0 7.777-.1952327.1952916-.5118152.1953394-.7071068.0001068-.1952916-.1952327-.1953394-.5118152-.0001068-.7071068 1.7567187-1.7572493 1.7567187-4.6057507 0-6.363z"/></g></svg>