<svg height="24" viewBox="0 0 24 24" width="24" xmlns="http://www.w3.org/2000/svg"><g fill="#000" fill-rule="nonzero"><path d="m8.32460947 8.00093865h-3.82460947c-.27614237 0-.5.22385763-.5.5v6.00000005c0 .2761423.22385763.5.5.5h3.82460947l4.86304303 3.8904344c.3273816.2619053.8123475.0288187.8123475-.3904344v-14.00000005c0-.4192531-.4849659-.65233974-.8123475-.3904344zm4.67539053-2.45968758v11.91937513l-4.18765248-3.350122c-.08865652-.0709252-.19881177-.1095655-.31234752-.1095655h-3.5v-5.00000005h3.5c.11353575 0 .223691-.03864038.31234752-.10956559z"/><path d="m17.6863932 8.31443865c1.7567187 1.75724935 1.7567187 4.60575065 0 6.36300005-.1952326.1952916-.1951848.5118741.0001068.7071067.1952916.1952327.5118741.1951849.7071068-.0001067 2.1471006-2.1477492 2.1471006-5.62925087 0-7.77700005-.1952327-.19529163-.5118152-.19533943-.7071068-.00010677s-.1953394.51181514-.0001068.70710677z"/></g></svg>