<svg height="24" viewBox="0 0 24 24" width="24" xmlns="http://www.w3.org/2000/svg"><g fill="#000" fill-rule="nonzero"><path d="m5.82460947 8.5h-3.82460947c-.27614237 0-.5.22385763-.5.5v6c0 .2761424.22385763.5.5.5h3.82460947l4.86304303 3.8904344c.3273816.2619053.8123475.0288187.8123475-.3904344v-14c0-.4192531-.4849659-.65233974-.8123475-.3904344zm4.67539053-2.45968758v11.91937518l-4.18765248-3.350122c-.08865652-.0709252-.19881177-.1095656-.31234752-.1095656h-3.5v-5h3.5c.11353575 0 .223691-.03864038.31234752-.1095656z"/><path d="m22.6464466 8.64644661-6 5.99999999c-.1952621.1952622-.1952621.5118446 0 .7071068.1952622.1952621.5118446.1952621.7071068 0l6-6.00000001c.1952621-.19526215.1952621-.51184463 0-.70710678-.1952622-.19526215-.5118446-.19526215-.7071068 0z"/><path d="m16.6464466 9.35355339 6 6.00000001c.1952622.1952621.5118446.1952621.7071068 0 .1952621-.1952622.1952621-.5118446 0-.7071068l-6-5.99999999c-.1952622-.19526215-.5118446-.19526215-.7071068 0-.1952621.19526215-.1952621.51184463 0 .70710678z"/></g></svg>