<svg height="24" viewBox="0 0 24 24" width="24" xmlns="http://www.w3.org/2000/svg"><g fill="#000" fill-rule="nonzero"><path d="m5.40000613 12.4315377c3.89320112-3.24275123 9.54679887-3.24275123 13.43999997 0 .2121809.1767312.5274564.1479935.7041875-.0641874s.1479934-.5274563-.0641875-.7041875c-4.2639822-3.5515847-10.45601779-3.5515847-14.71999997 0-.21218087.1767312-.24091857.4920066-.06418745.7041875s.49200658.2409186.70418745.0641874z"/><path d="m1.83063113 8.8724331c5.85752463-5.16324413 14.64122537-5.16324413 20.49874997 0 .2071525.18259914.5231087.1626947.7057078-.04445781.1825992-.20715251.1626947-.52310866-.0444578-.7057078-6.2354294-5.49635665-15.58582052-5.49635665-21.82124997 0-.20715251.18259914-.22705695.49855529-.0444578.7057078.18259914.20715251.49855529.22705695.7057078.04445781z"/><path d="m8.89958946 16.0149549c1.90742454-1.3551329 4.46340884-1.3551329 6.37083334 0 .2251138.1599324.5372555.1070925.6971879-.1180213.1599325-.2251138.1070926-.5372554-.1180212-.6971879-2.254229-1.6015206-5.2749377-1.6015206-7.5291667 0-.2251138.1599325-.27795371.4720741-.11802125.6971879s.47207412.2779537.69718791.1180213z"/><path d="m11.7264527 19.8509037c.1952622.1952621.5118447.1952621.7071068 0 .1952622-.1952622.1952622-.5118447 0-.7071068-.1952621-.1952621-.5118446-.1952621-.7071068 0-.1952621.1952621-.1952621.5118446 0 .7071068z"/></g></svg>