<svg height="24" viewBox="0 0 24 24" width="24" xmlns="http://www.w3.org/2000/svg"><g fill="#000" fill-rule="nonzero"><path d="m11.5 20c4.6944204 0 8.5-3.8055796 8.5-8.5 0-4.69442037-3.8055796-8.5-8.5-8.5-4.69442037 0-8.5 3.80557963-8.5 8.5 0 4.6944204 3.80557963 8.5 8.5 8.5zm0-1c-4.14213562 0-7.5-3.3578644-7.5-7.5 0-4.14213562 3.35786438-7.5 7.5-7.5 4.1421356 0 7.5 3.35786438 7.5 7.5 0 4.1421356-3.3578644 7.5-7.5 7.5z"/><path d="m21.8535534 21.1464466-4.35-4.35c-.1952622-.1952621-.5118446-.1952621-.7071068 0-.1952621.1952622-.1952621.5118446 0 .7071068l4.35 4.35c.1952622.1952621.5118446.1952621.7071068 0 .1952621-.1952622.1952621-.5118446 0-.7071068z"/><path d="m11 8.5v6c0 .2761424.2238576.5.5.5s.5-.2238576.5-.5v-6c0-.27614237-.2238576-.5-.5-.5s-.5.22385763-.5.5z"/><path d="m8.5 12h6c.2761424 0 .5-.2238576.5-.5s-.2238576-.5-.5-.5h-6c-.27614237 0-.5.2238576-.5.5s.22385763.5.5.5z"/></g></svg>